<svg width="1102" height="222" viewBox="0 0 1102 222" fill="none" xmlns="http://www.w3.org/2000/svg">
<path d="M0.28 101.18C0.28 88.42 2.55333 77.2733 7.1 67.74C11.7933 58.2067 18.1 50.8733 26.02 45.74C34.0867 40.6067 43.0333 38.04 52.86 38.04C61.3667 38.04 68.7 39.7267 74.86 43.1C81.02 46.4733 85.7867 51.02 89.16 56.74V39.58H132.28V163H89.16V145.84C85.7867 151.56 80.9467 156.107 74.64 159.48C68.48 162.853 61.22 164.54 52.86 164.54C43.0333 164.54 34.0867 161.973 26.02 156.84C18.1 151.707 11.7933 144.373 7.1 134.84C2.55333 125.16 0.28 113.94 0.28 101.18ZM89.16 101.18C89.16 93.26 86.96 87.0267 82.56 82.48C78.3067 77.9333 73.0267 75.66 66.72 75.66C60.2667 75.66 54.9133 77.9333 50.66 82.48C46.4067 86.88 44.28 93.1133 44.28 101.18C44.28 109.1 46.4067 115.407 50.66 120.1C54.9133 124.647 60.2667 126.92 66.72 126.92C73.0267 126.92 78.3067 124.647 82.56 120.1C86.96 115.553 89.16 109.247 89.16 101.18ZM234.071 163L199.971 112.4V163H156.851V0.199998H199.971V87.98L234.071 39.58H285.771L237.151 101.62L286.651 163H234.071ZM292.253 101.18C292.253 88.42 294.526 77.2733 299.073 67.74C303.766 58.2067 310.073 50.8733 317.993 45.74C326.059 40.6067 335.006 38.04 344.833 38.04C353.339 38.04 360.673 39.7267 366.833 43.1C372.993 46.4733 377.759 51.02 381.133 56.74V39.58H424.253V163H381.133V145.84C377.759 151.56 372.919 156.107 366.613 159.48C360.453 162.853 353.193 164.54 344.833 164.54C335.006 164.54 326.059 161.973 317.993 156.84C310.073 151.707 303.766 144.373 299.073 134.84C294.526 125.16 292.253 113.94 292.253 101.18ZM381.133 101.18C381.133 93.26 378.933 87.0267 374.533 82.48C370.279 77.9333 364.999 75.66 358.693 75.66C352.239 75.66 346.886 77.9333 342.633 82.48C338.379 86.88 336.253 93.1133 336.253 101.18C336.253 109.1 338.379 115.407 342.633 120.1C346.886 124.647 352.239 126.92 358.693 126.92C364.999 126.92 370.279 124.647 374.533 120.1C378.933 115.553 381.133 109.247 381.133 101.18ZM441.784 101.18C441.784 88.42 444.057 77.2733 448.604 67.74C453.297 58.2067 459.677 50.8733 467.744 45.74C475.811 40.6067 484.757 38.04 494.584 38.04C502.504 38.04 509.544 39.7267 515.704 43.1C522.011 46.3267 526.924 50.8 530.444 56.52V0.199998H573.784V163H530.444V145.84C527.071 151.56 522.304 156.107 516.144 159.48C509.984 162.853 502.724 164.54 494.364 164.54C484.537 164.54 475.591 161.973 467.524 156.84C459.604 151.707 453.297 144.373 448.604 134.84C444.057 125.16 441.784 113.94 441.784 101.18ZM530.664 101.18C530.664 93.26 528.464 87.0267 524.064 82.48C519.811 77.9333 514.531 75.66 508.224 75.66C501.771 75.66 496.417 77.9333 492.164 82.48C487.911 86.88 485.784 93.1133 485.784 101.18C485.784 109.1 487.911 115.407 492.164 120.1C496.417 124.647 501.771 126.92 508.224 126.92C514.531 126.92 519.811 124.647 524.064 120.1C528.464 115.553 530.664 109.247 530.664 101.18ZM716.275 99.86C716.275 103.233 716.055 106.607 715.615 109.98H633.995C634.435 116.727 636.268 121.787 639.495 125.16C642.868 128.387 647.122 130 652.255 130C659.442 130 664.575 126.773 667.655 120.32H713.635C711.728 128.827 707.988 136.453 702.415 143.2C696.988 149.8 690.095 155.007 681.735 158.82C673.375 162.633 664.135 164.54 654.015 164.54C641.842 164.54 630.988 161.973 621.455 156.84C612.068 151.707 604.662 144.373 599.235 134.84C593.955 125.307 591.315 114.087 591.315 101.18C591.315 88.2733 593.955 77.1267 599.235 67.74C604.515 58.2067 611.848 50.8733 621.235 45.74C630.768 40.6067 641.695 38.04 654.015 38.04C666.188 38.04 676.968 40.5333 686.355 45.52C695.742 50.5067 703.075 57.6933 708.355 67.08C713.635 76.32 716.275 87.2467 716.275 99.86ZM672.275 89.08C672.275 83.8 670.515 79.6933 666.995 76.76C663.475 73.68 659.075 72.14 653.795 72.14C648.515 72.14 644.188 73.6067 640.815 76.54C637.442 79.3267 635.242 83.5067 634.215 89.08H672.275ZM895.182 38.48C910.728 38.48 922.902 43.1733 931.702 52.56C940.648 61.9467 945.122 74.78 945.122 91.06V163H902.002V96.78C902.002 90.18 900.168 85.0467 896.502 81.38C892.835 77.7133 887.848 75.88 881.542 75.88C875.235 75.88 870.248 77.7133 866.582 81.38C862.915 85.0467 861.082 90.18 861.082 96.78V163H817.962V96.78C817.962 90.18 816.128 85.0467 812.462 81.38C808.942 77.7133 804.028 75.88 797.722 75.88C791.268 75.88 786.208 77.7133 782.542 81.38C778.875 85.0467 777.042 90.18 777.042 96.78V163H733.922V39.58H777.042V55.86C780.855 50.58 785.768 46.4 791.782 43.32C797.942 40.0933 804.982 38.48 812.902 38.48C821.995 38.48 830.062 40.46 837.102 44.42C844.288 48.38 849.935 53.9533 854.042 61.14C858.442 54.3933 864.235 48.9667 871.422 44.86C878.608 40.6067 886.528 38.48 895.182 38.48ZM1101.63 39.58L1023.31 221.74H976.446L1005.93 157.72L955.326 39.58H1003.29L1029.25 109.54L1054.33 39.58H1101.63Z" fill="#0D6EFD"/>
</svg>
